<?xml version="1.0" encoding="UTF-8"?>
<svg id="Layer_1" data-name="Layer 1" xmlns="http://www.w3.org/2000/svg" viewBox="0 0 200 200">
  <defs>
    <style>
      .cls-1 {
        fill: #1b2a4a;
      }
    </style>
  </defs>
  <path class="cls-1" d="M63.32,97.67s-.06,0-.08,0c-.9-.05-1.59-.81-1.54-1.71.84-16.21,9.72-27.36,25.69-32.25.86-.26,1.77.22,2.03,1.08.26.86-.22,1.77-1.08,2.03-14.54,4.46-22.63,14.59-23.39,29.31-.04.87-.76,1.54-1.62,1.54Z"/>
  <path class="cls-1" d="M90.98,138.69c-.11,0-.22-.01-.32-.03-16.21-3.28-27.38-16.19-29.14-33.71-.09-.89.56-1.69,1.46-1.78.89-.08,1.69.56,1.78,1.46,1.61,16.04,11.79,27.86,26.55,30.84.88.18,1.45,1.04,1.27,1.92-.16.77-.84,1.3-1.59,1.3Z"/>
  <path class="cls-1" d="M108.43,138.69c-.76,0-1.45-.54-1.6-1.32-.17-.88.41-1.73,1.29-1.9,15.16-2.89,25.57-14.55,27.17-30.44.09-.89.9-1.54,1.78-1.46.89.09,1.55.89,1.46,1.78-1.75,17.37-13.17,30.13-29.79,33.31-.1.02-.21.03-.31.03Z"/>
  <path class="cls-1" d="M137.27,97.51c-.86,0-1.58-.67-1.62-1.54-.7-13.64-9.45-24.84-23.41-29.96-.84-.31-1.28-1.24-.97-2.09s1.24-1.27,2.09-.97c15.22,5.58,24.76,17.86,25.53,32.85.05.9-.64,1.66-1.54,1.71-.03,0-.06,0-.08,0Z"/>
  <path class="cls-1" d="M163.29,99.51c0,32.55-24.58,59.37-56.2,62.89-2.33.27-4.7.4-7.1.4-2.59,0-5.14-.16-7.64-.46-31.35-3.78-55.64-30.46-55.64-62.83s22.47-57,52.07-62.31v14.1c-21.65,5.01-37.85,24.25-38.25,47.33h10.28v2.46h-10.27c.75,24.02,18.61,43.72,41.81,47.32,1.79.27,3.62.46,5.47.54v-11.89h4.36v11.88c1.66-.07,3.3-.22,4.91-.46,22.7-3.25,40.42-21.92,42.23-45.05.06-.78.1-1.56.13-2.35h-10.93v-2.46h10.94c0-.34-.01-.67-.03-1.01-.82-22-16.01-40.32-36.46-45.87v-14.19c28.73,5.98,50.3,31.45,50.3,61.95Z"/>
  <path class="cls-1" d="M96.71,38.2h6.52v49.55s-.69,2.46-3.23,2.46-3.29-2.46-3.29-2.46v-49.55Z"/>
</svg>