<svg xmlns="http://www.w3.org/2000/svg" fill="none" viewBox="0 0 50 50" height="50" width="50"><path fill="#0E0E0E" d="M31.5941 3.87822L31.5943 3.87819L31.5949 3.87758L31.5941 3.87822ZM31.5941 3.87822C31.5821 3.88007 31.0339 3.96343 30.5141 3.79042C29.9892 3.61548 29.3466 3.76136 28.9374 4.11124C28.9374 4.11124 29.3169 3.99441 29.5212 4.05313C29.5212 4.05313 28.3543 4.51984 27.9445 5.45265C27.9445 5.45265 29.3751 3.81947 30.719 4.16935L30.3389 3.99441C30.3389 3.99441 31.039 4.31493 31.5941 3.87822ZM35.0399 4.69481C36.0322 4.6367 36.3838 5.07375 36.3838 5.07375C36.0043 5.45329 35.2739 5.33646 35.2739 5.33646L35.8582 5.19058L35.186 5.13247L35.8285 5.07375C35.3475 4.90116 34.9049 4.99392 34.467 5.0857C34.2398 5.13331 34.0139 5.18066 33.7845 5.19058C33.1128 5.21964 32.2072 6.124 32.2072 6.124C31.4476 7.14459 30.7178 7.46541 30.7178 7.46541C30.9221 7.31953 31.0688 6.96965 31.0688 6.96965C30.5657 7.32582 30.0272 7.44829 29.6476 7.48676C30.7325 7.27353 32.035 5.96228 32.2363 5.68634C32.4697 5.36552 33.5208 5.01564 33.5208 5.01564C33.3753 4.72387 32.0023 3.99505 32.0023 3.99505C32.7909 4.11188 33.6966 4.75353 33.6966 4.75353C33.8281 4.72417 33.9157 4.72417 34.0945 4.72417C34.2734 4.72417 34.5434 4.72417 35.0399 4.69481ZM29.1411 7.49447C29.3004 7.52707 29.4711 7.52144 29.6476 7.48676C29.3433 7.51759 29.1411 7.49447 29.1411 7.49447ZM27.7688 5.80259C27.7688 5.80259 27.0395 7.348 28.441 8.48541C28.441 8.48541 27.4778 6.50235 29.4927 5.62765C29.4927 5.62765 28.8205 5.77353 28.441 6.12341C28.441 6.12341 28.4707 5.80259 29.1424 5.39399C29.1424 5.39399 28.1488 5.53987 27.9161 6.26869C27.9161 6.26869 27.7403 6.03564 27.7694 5.80198L27.7688 5.80259ZM29.6383 10.2968L29.6382 10.2935L29.6388 10.2947L29.6383 10.2968ZM29.6383 10.2968C29.6419 10.3714 29.7114 11.6972 30.2225 12.8305C30.5169 13.4838 30.6097 14.0455 30.6857 14.5057L30.6857 14.5057C30.7454 14.8672 30.7948 15.1659 30.9233 15.3971C30.9711 15.4829 31.0142 15.5548 31.0517 15.6173L31.0518 15.6173C31.2434 15.9367 31.289 16.0126 31.07 16.4764C30.8069 17.0302 30.6893 17.2639 30.6893 17.2639C30.6893 17.2639 30.5729 16.506 30.6317 16.0974C30.6893 15.6888 30.3395 16.3311 30.3395 16.3311C30.3395 16.3311 30.3692 15.5436 30.4565 15.3099C30.5438 15.0768 30.2523 15.6017 30.2523 15.6017C30.2523 15.6017 30.1062 15.0478 30.3104 14.6398C30.5147 14.2312 30.1353 14.4933 30.1353 14.4933C30.1353 14.4933 30.048 14.2021 30.1353 13.8813C30.2232 13.5605 29.9013 13.6186 29.9013 13.6186C29.9013 13.6186 29.9013 13.2687 29.931 13.0066C29.9462 12.8689 29.8652 12.7153 29.7847 12.5625C29.7116 12.4237 29.6388 12.2857 29.6388 12.161C29.6388 12.0958 29.6243 12.0144 29.6062 11.9123C29.5514 11.6038 29.4631 11.1062 29.6383 10.2968ZM34.9823 5.48176C34.9823 5.48176 34.1355 5.6567 34.0482 5.77353C34.0102 5.8244 33.7782 6.04663 33.4753 6.33671C33.0827 6.71282 32.5709 7.203 32.2085 7.58165C32.2085 7.58165 32.9965 6.41518 33.6978 5.80259C33.6978 5.80259 33.9609 5.54048 34.9823 5.48176ZM31.5944 9.44849C31.0694 8.36918 31.8866 8.04836 31.8866 8.04836V8.04775C30.8064 8.19364 31.5362 10.3807 31.5362 10.3807L31.2731 9.79776C31.2731 10.4975 31.6817 12.7724 32.6455 13.7342C33.6099 14.6967 33.9894 16.5048 33.9894 16.5048C33.8433 16.2421 33.3178 16.0672 33.3178 16.0672C34.0773 16.7669 34.1943 18.2252 34.1943 18.2252C34.1361 17.9921 33.639 17.9334 33.639 17.9334C34.1943 18.4292 34.3404 19.2458 34.3404 19.2458C34.2525 19.0418 33.6978 18.9836 33.6978 18.9836C34.1355 19.2167 34.4271 20.0333 34.4271 20.0333C34.3398 19.888 33.9021 19.6544 33.9021 19.6544C34.4271 20.0339 34.895 21.1707 34.895 21.1707C34.9526 20.7918 34.9235 20.2088 34.661 19.7712C34.3986 19.3335 34.5731 18.9836 34.5731 18.9836C34.4859 16.7966 33.5214 14.3765 32.9959 13.5889C32.4709 12.802 32.0908 11.664 31.9157 10.8771C31.7405 10.0901 31.5944 9.44849 31.5944 9.44849ZM34.8066 21.3165C34.8066 21.3165 36.2966 22.658 36.0911 24.1162C35.958 25.069 35.7996 25.5114 35.6405 25.9557C35.5561 26.1914 35.4715 26.4276 35.3904 26.7409C35.1564 27.6453 34.806 28.0533 34.135 28.2869C34.135 28.2869 35.157 27.8202 35.1279 25.6332C35.1279 25.6332 35.8577 25.4001 35.3904 23.7379C35.3904 23.7379 35.8577 23.8831 35.7704 24.5835C35.7704 24.5835 36.3839 23.2718 34.8066 21.3178V21.3165ZM32.6747 29.6858C33.1717 29.569 33.9604 28.6652 33.9604 28.6652V28.6646C33.6973 28.7518 33.7264 28.0811 33.7264 28.0811C34.018 27.2361 33.9307 26.5066 33.9307 26.5066C33.8137 27.8777 32.4413 29.0145 32.4413 29.0145C32.6747 28.9855 33.0838 28.6356 33.0838 28.6356C32.6305 29.3821 31.3706 30.0068 31.1578 30.1084C31.8302 29.7821 31.8866 29.1023 31.8866 29.1023C32.879 28.5194 32.7917 27.3529 32.7917 27.3529C32.5874 28.3444 31.7405 29.0151 31.7405 29.0151C31.1271 30.4443 28.8497 30.7942 28.8497 30.7942C29.5207 30.5024 29.842 29.9485 29.842 29.9485C31.0986 29.5115 31.4193 28.2282 31.4193 28.2282C30.9525 29.4237 29.5504 29.7736 29.5504 29.7736C29.1122 30.7651 26.9517 31.3487 26.9517 31.3487C27.273 31.1156 27.3894 30.3281 27.3894 30.3281C27.0978 31.0569 24.9071 31.6986 24.9071 31.6986C25.1411 31.3487 24.8786 31.1737 24.8786 31.1737C24.5864 31.8444 22.8049 32.1362 22.8049 32.1362C23.0673 31.9607 22.98 31.3487 22.98 31.3487C22.7911 31.8805 22.3295 32.2304 22.0524 32.4404C21.8584 32.5875 21.7549 32.6659 21.8992 32.6901C22.1045 32.7241 22.38 32.5982 22.6083 32.4939C22.7697 32.4202 22.9075 32.3572 22.98 32.3693C23.0801 32.3859 22.8945 32.9158 22.7059 33.4543L22.7059 33.4543C22.5643 33.8589 22.4209 34.2683 22.3957 34.4685C22.3543 34.8008 22.9492 34.7634 23.3271 34.5775C22.9012 35.0431 22.5229 35.6977 22.5708 36.1012L22.5742 36.1297C22.6311 36.6138 22.6816 37.043 22.3665 37.5014C22.1146 37.8674 21.9704 38.4664 21.8073 39.1438L21.8073 39.1439C21.7624 39.3302 21.7161 39.5225 21.6658 39.7175C21.4324 40.6218 21.2281 41.5262 21.1402 42.634C21.0529 43.7417 20.9068 43.5389 20.9068 43.4215C20.9068 43.3491 20.8734 43.2882 20.8274 43.2042C20.7987 43.152 20.7651 43.0908 20.7317 43.0123C20.6796 42.8911 20.814 42.2727 20.9559 41.62C21.0521 41.1773 21.1518 40.7188 21.199 40.3888C21.2157 40.2721 21.2318 40.1512 21.2482 40.0284C21.3463 39.2919 21.4534 38.4886 21.7537 38.114C22.1041 37.6769 22.1913 37.3264 22.1041 36.6267C22.0529 36.2191 21.9523 36.3555 21.8541 36.4887C21.7838 36.5842 21.7146 36.678 21.6658 36.5686C21.5651 36.3413 21.6604 36.1797 21.8394 35.8761C21.8673 35.8288 21.8973 35.778 21.9289 35.7229C22.1629 35.3143 22.2798 34.7017 22.2798 34.7017C22.2798 34.7017 21.6664 35.5183 21.4039 35.9554C21.2335 36.2389 21.2839 36.5342 21.3405 36.8658C21.3713 37.046 21.4039 37.237 21.4039 37.4427C21.4039 37.7505 21.347 38.0902 21.2547 38.6416C21.1718 39.1365 21.0604 39.8019 20.9359 40.7677C20.8052 41.7842 20.5803 42.4896 20.3982 43.0605C20.3101 43.337 20.232 43.5819 20.1795 43.8153C19.5385 43.863 19.3576 43.9083 19.9819 43.945C20.038 43.9483 20.0944 43.9514 20.1512 43.9544C20.1231 44.1094 20.1081 44.261 20.111 44.4153C15.647 44.7306 9.80793 45.173 13.908 45.5007C16.3448 45.6954 18.3208 45.5922 20.9161 45.4567C24.541 45.2674 29.3742 45.015 38.3594 45.4232C38.3594 45.4232 39.8397 45.1114 37.8145 44.9559C37.8145 44.9559 38.0485 44.4898 44.7449 44.9559C44.7449 44.9559 46.0688 44.5673 44.1218 44.4898C43.6408 44.4705 42.8511 44.456 41.9381 44.4392C39.1545 44.388 35.2243 44.3157 35.4001 44.0231C35.5042 43.8498 36.7032 43.9078 38.002 43.9705C39.6216 44.0487 41.3964 44.1345 41.3964 43.7888C41.3964 43.4447 37.6651 43.3862 34.3252 43.4028C34.3602 43.3804 34.3958 43.3576 34.4307 43.333C34.5157 43.2704 34.6159 43.2196 34.7198 43.1669L34.7199 43.1668L34.755 43.149C34.9275 43.0498 35.1264 42.9722 35.3358 42.8905C35.4024 42.8646 35.47 42.8382 35.5382 42.8106C35.6294 42.7783 35.7244 42.7506 35.821 42.7225C35.8764 42.7063 35.9324 42.69 35.9886 42.6726C36.0261 42.6617 36.0637 42.6504 36.1015 42.639L36.1016 42.639C36.2198 42.6033 36.3396 42.5672 36.465 42.5443C36.566 42.5239 36.6677 42.5011 36.7703 42.4781L36.7703 42.4781C37.0028 42.426 37.2401 42.3729 37.4852 42.3439C37.5863 42.33 37.6877 42.3145 37.7895 42.299L37.7896 42.2989C38.0417 42.2605 38.296 42.2217 38.5533 42.2053C38.6812 42.1952 38.8089 42.183 38.9363 42.1708L38.9363 42.1708C39.1688 42.1486 39.4005 42.1265 39.6311 42.1175L40.6786 42.0763C40.8981 42.0666 41.1134 42.0687 41.3227 42.0707H41.3229H41.3232C41.4373 42.0718 41.5497 42.073 41.66 42.0721C41.7348 42.0727 41.8086 42.0733 41.8814 42.0738C42.1121 42.0756 42.332 42.0774 42.5389 42.0788C43.6288 42.126 44.3557 42.1581 44.3557 42.1581C44.3557 42.1581 43.6307 42.0975 42.5432 42.0061L41.6624 41.965C41.5509 41.9613 41.4373 41.9555 41.3218 41.9496C41.1131 41.9389 40.8982 41.9279 40.6786 41.9286H39.6244C39.3978 41.9271 39.1688 41.9398 38.9385 41.9526H38.9385C38.8041 41.9601 38.6694 41.9675 38.5345 41.9722C38.2786 41.9782 38.0229 42.0068 37.7689 42.0353L37.7687 42.0353L37.7686 42.0353C37.6611 42.0474 37.5539 42.0594 37.447 42.0697C37.1984 42.0894 36.9547 42.1337 36.7155 42.1771C36.6089 42.1965 36.5032 42.2157 36.3983 42.2325C36.2687 42.2509 36.1433 42.2831 36.0192 42.3151L36.0191 42.3151C35.9795 42.3253 35.9401 42.3354 35.9007 42.3451C35.8449 42.3599 35.7894 42.3737 35.7344 42.3874L35.7342 42.3875C35.6296 42.4135 35.5267 42.4391 35.4266 42.4704C35.3599 42.494 35.2938 42.5167 35.2285 42.539C34.9978 42.618 34.7779 42.6932 34.5804 42.7961C34.3203 42.9062 34.0973 43.0527 33.9021 43.1841C33.8683 43.2114 33.835 43.2376 33.8026 43.2632L33.8025 43.2632C33.7459 43.3078 33.6917 43.3504 33.642 43.3935L33.6287 43.4073C33.4491 43.4087 33.2715 43.4103 33.0966 43.4121C33.0981 43.4029 33.0996 43.3936 33.1012 43.3841L33.1013 43.383L33.1014 43.3826L33.1014 43.3825C33.113 43.3106 33.1257 43.2318 33.1447 43.1472L33.1846 43.0845C33.2432 43.0429 33.3041 43.002 33.3693 42.9644C33.5015 42.882 33.6391 42.7961 33.7815 42.7065C33.8824 42.6549 33.9851 42.6015 34.0898 42.547L34.2453 42.4662C34.4003 42.3792 34.5702 42.3088 34.7426 42.2374L34.7472 42.2355C34.8119 42.2094 34.8766 42.1817 34.9418 42.1537C35.053 42.106 35.1656 42.0578 35.2818 42.0158C35.3543 41.9917 35.4272 41.9676 35.5004 41.9435L35.5018 41.943C35.6173 41.9049 35.7337 41.8665 35.851 41.8269C35.8865 41.8156 35.922 41.8036 35.9576 41.7916L35.9577 41.7916L35.9579 41.7916C36.0188 41.7711 36.08 41.7505 36.142 41.7325C36.2046 41.7178 36.2668 41.7027 36.329 41.6875L36.3299 41.6873L36.4427 41.6599C36.6451 41.6108 36.8476 41.5612 37.0513 41.511C37.1846 41.4793 37.3206 41.4583 37.4568 41.4372L37.4571 41.4372C37.5294 41.426 37.6017 41.4148 37.6738 41.402C37.8823 41.3675 38.0909 41.3336 38.2982 41.2997C38.4142 41.2897 38.5297 41.2793 38.6448 41.2689L38.6457 41.2689L38.6463 41.2688L38.7496 41.2595L38.9244 41.244L39.1184 41.2272L39.1203 41.227C39.262 41.2147 39.4025 41.2026 39.5421 41.1901C39.6737 41.1807 39.8048 41.1797 39.9346 41.1787C40.0056 41.1781 40.0763 41.1775 40.1464 41.1756C40.3338 41.1728 40.5179 41.1704 40.6993 41.1682L40.7326 41.1677C40.9235 41.1635 41.1115 41.1599 41.2933 41.175C41.5557 41.1885 41.8084 41.2021 42.0483 41.2149L42.3202 41.2295C42.5913 41.2377 42.8409 41.2678 43.0683 41.2953H43.0683L43.0684 41.2953L43.1864 41.3094C43.3448 41.3281 43.4909 41.3452 43.6231 41.3606L43.8526 41.3875C44.2224 41.4317 44.4333 41.4565 44.4333 41.4565C44.4333 41.4565 44.223 41.4238 43.855 41.3675C43.6944 41.3438 43.5039 41.3145 43.2878 41.2813L43.1906 41.2664L43.1022 41.2525L43.1021 41.2525L43.1021 41.2525C42.8687 41.2155 42.6094 41.1745 42.3262 41.1568C42.1647 41.143 41.9962 41.1281 41.8216 41.1127L41.82 41.1125C41.6511 41.0976 41.4764 41.0821 41.2969 41.0667C41.1145 41.0455 40.9266 41.0418 40.7344 41.0394C40.5416 41.0364 40.3452 41.0328 40.1452 41.0285C40.0732 41.0281 40.0008 41.0263 39.9281 41.0245H39.928H39.9279C39.7982 41.0214 39.6674 41.0182 39.5354 41.0225C39.3293 41.0328 39.1208 41.0437 38.9104 41.0558C38.726 41.0653 38.5398 41.0754 38.3525 41.0855L38.2751 41.0897L38.0831 41.1145C37.9353 41.1336 37.7873 41.1528 37.6393 41.1714C37.5666 41.1817 37.4938 41.1904 37.421 41.1991C37.2806 41.2159 37.1405 41.2327 37.0028 41.261C36.793 41.3045 36.5851 41.3475 36.3778 41.3905C36.2741 41.4129 36.1705 41.4341 36.068 41.4553C36.0056 41.4709 35.944 41.4892 35.8827 41.5075L35.8826 41.5075L35.8822 41.5076C35.8437 41.5191 35.8053 41.5305 35.7668 41.5412L35.5189 41.6139C35.4467 41.635 35.375 41.656 35.3037 41.6769C35.2611 41.6894 35.2186 41.7019 35.1763 41.7144C35.0525 41.7541 34.9319 41.801 34.8129 41.8472L34.8128 41.8473L34.8127 41.8473L34.8125 41.8474C34.747 41.8728 34.6818 41.8981 34.6168 41.922L34.6116 41.9239C34.431 41.9917 34.2546 42.0578 34.0901 42.1423L33.8858 42.2401L33.8719 42.2468L33.9145 42.2068L33.9149 42.2065L33.9151 42.2063C33.9667 42.158 34.019 42.109 34.0725 42.06C34.1579 41.9746 34.2525 41.8978 34.3537 41.8239L34.4623 41.7406L34.4625 41.7404L34.5542 41.67C34.5872 41.6446 34.6205 41.6192 34.6538 41.5939C34.73 41.5488 34.8052 41.5007 34.8808 41.4525L34.8811 41.4523C35.0225 41.362 35.1651 41.2709 35.3176 41.1968L35.6679 41.0249C35.6896 41.0147 35.7109 41.0043 35.7322 40.9939L35.7326 40.9937C35.7697 40.9755 35.8067 40.9575 35.8443 40.9413L36.025 40.8729C36.0841 40.8514 36.1429 40.8296 36.2014 40.8079C36.2628 40.785 36.3239 40.7624 36.3844 40.7404C36.4439 40.718 36.5027 40.6962 36.5621 40.6744C36.6215 40.6586 36.6821 40.6429 36.7409 40.6278C36.8241 40.6062 36.9063 40.584 36.9874 40.5622L36.9876 40.5621L36.9878 40.5621C37.1388 40.5214 37.286 40.4817 37.4295 40.4486L37.5748 40.4238L37.781 40.3887L37.7817 40.3886L38.0587 40.3415C38.1569 40.3257 38.2509 40.3106 38.3394 40.2955L38.4234 40.2886C38.4825 40.2837 38.5395 40.279 38.5946 40.2749L38.6788 40.2681L38.7799 40.2599L38.7833 40.2596C38.8673 40.2528 38.9434 40.2466 39.011 40.2416C39.242 40.2228 39.3741 40.2113 39.3741 40.2113C39.3741 40.2113 39.242 40.2143 39.0098 40.2204C38.894 40.224 38.7534 40.2277 38.5922 40.2319C38.5548 40.2327 38.5168 40.2339 38.4779 40.2352L38.4775 40.2352L38.4772 40.2352L38.4768 40.2352L38.4575 40.2358C38.4175 40.2371 38.3764 40.2383 38.3339 40.2392L38.326 40.24L38.322 40.2404C38.2358 40.2497 38.1447 40.2596 38.0496 40.2694L37.9082 40.2855C37.7507 40.3034 37.5837 40.3224 37.4095 40.3415C37.2668 40.3664 37.12 40.3973 36.9691 40.4291L36.9687 40.4292C36.8813 40.4476 36.7927 40.4663 36.7027 40.4843L36.6512 40.4952L36.6199 40.502L36.5751 40.5117C36.5561 40.5157 36.537 40.5197 36.5178 40.5237L36.4588 40.5413L36.3335 40.5793C36.2575 40.6037 36.1805 40.6275 36.1031 40.6515C36.0553 40.6663 36.0074 40.6812 35.9595 40.6962L35.7698 40.7543C35.7323 40.7688 35.6955 40.7847 35.6587 40.8005C35.6341 40.8111 35.6096 40.8216 35.5849 40.8318L35.2139 40.9879C35.0522 41.0563 34.8987 41.1424 34.7459 41.2281L34.7459 41.2281L34.7458 41.2281L34.7457 41.2282L34.7457 41.2282L34.7456 41.2282C34.6642 41.2739 34.5831 41.3194 34.501 41.362C34.413 41.4232 34.325 41.4833 34.2382 41.5424L34.1743 41.586C34.064 41.658 33.9591 41.7331 33.864 41.8185C33.7878 41.8818 33.7124 41.9451 33.638 42.0075L33.5754 42.06L33.5137 42.1212C33.5668 42.0123 33.6257 41.9017 33.6972 41.7937C33.7847 41.6282 33.9034 41.474 34.0258 41.315L34.0259 41.3149C34.0731 41.2535 34.1209 41.1915 34.1676 41.1278C34.2279 41.0579 34.2927 40.9907 34.3578 40.9232C34.3936 40.8861 34.4294 40.849 34.4647 40.8112C34.5653 40.7035 34.6677 40.5957 34.7877 40.5049L34.8191 40.4787C34.9246 40.3905 35.0305 40.3018 35.1375 40.2132C35.2095 40.1497 35.2905 40.0979 35.3717 40.046L35.3718 40.0459L35.3719 40.0459L35.3719 40.0458C35.42 40.0151 35.4682 39.9843 35.5146 39.951L35.8995 39.6974L36.3068 39.4861L36.4611 39.4062C36.5441 39.3632 36.6264 39.3206 36.7081 39.2779C36.8039 39.236 36.9003 39.1982 36.9956 39.1609L37.0668 39.133L37.1179 39.1127C37.2537 39.0582 37.3864 39.0049 37.5162 38.9535L37.5822 38.9273L37.5824 38.9272L37.5843 38.9265C37.6266 38.9097 37.6685 38.8932 37.7095 38.8766C37.7756 38.8572 37.8405 38.8378 37.9041 38.8185L38.6267 38.6054C38.789 38.5511 38.9459 38.519 39.0906 38.4894L39.0907 38.4894L39.0907 38.4894L39.0908 38.4893L39.0908 38.4893L39.0908 38.4893L39.091 38.4893C39.1445 38.4784 39.1963 38.4677 39.2462 38.4565L39.7281 38.356L39.9828 38.3031L40.1488 38.2688L39.7257 38.3372C39.5905 38.3584 39.4268 38.3844 39.2389 38.4147C39.1878 38.4238 39.1347 38.4321 39.0799 38.4406L39.0798 38.4406C38.9333 38.4635 38.7747 38.4883 38.6097 38.5346L38.5385 38.5522L38.5342 38.5532C38.3275 38.6043 38.1059 38.659 37.8732 38.7162C37.8371 38.7249 37.8005 38.7341 37.7636 38.7433L37.675 38.7652C37.6089 38.7876 37.5428 38.81 37.4756 38.833C37.3422 38.879 37.2052 38.9268 37.0658 38.974C37.015 38.9921 36.9633 39.0098 36.9113 39.0275L36.9109 39.0276C36.8221 39.0579 36.732 39.0886 36.6427 39.1229C36.5045 39.1871 36.365 39.2513 36.2238 39.316L36.0514 39.3954L35.797 39.5128L35.3903 39.7549C35.343 39.7851 35.2944 39.813 35.2458 39.841C35.1569 39.8921 35.0682 39.9431 34.9878 40.0073L34.8348 40.1235L34.6114 40.2931C34.4816 40.382 34.3689 40.4904 34.2586 40.5981C34.2241 40.6314 34.1894 40.6643 34.1548 40.697L34.1547 40.697L34.1545 40.6973C34.0779 40.7697 34.002 40.8415 33.9306 40.9165C33.8812 40.9773 33.8308 41.0367 33.781 41.0955L33.7805 41.0961L33.7802 41.0964L33.7793 41.0974L33.779 41.0978C33.6382 41.2639 33.501 41.4258 33.3966 41.6018C33.2576 41.7929 33.1545 41.9932 33.0576 42.1816L33.0575 42.1817L33.0575 42.1818C33.0402 42.2152 33.0232 42.2483 33.0062 42.281L32.9812 42.3412L32.9586 42.3951L32.9586 42.3952L32.9585 42.3953L32.9584 42.3955C32.8873 42.5654 32.8208 42.7243 32.7781 42.8757L32.7644 42.8851C32.7437 42.8995 32.723 42.9137 32.7025 42.9277L32.6594 42.9568C32.5741 43.0145 32.4919 43.07 32.4194 43.132L32.3664 43.1749C32.3434 43.11 32.3148 43.0218 32.2854 42.9123C32.2187 42.6466 32.152 42.2495 32.1829 41.7719C32.2126 41.2936 32.3472 40.7367 32.6267 40.195C32.76 39.9207 32.9407 39.6592 33.1316 39.4002C33.3335 39.1477 33.5523 38.9008 33.7948 38.6756L33.8443 38.6297L33.8444 38.6296L33.8444 38.6296C33.9495 38.5321 34.0544 38.4347 34.167 38.3469L34.1692 38.3451C34.2951 38.2403 34.4217 38.1351 34.5555 38.0424C34.8162 37.8439 35.0896 37.6713 35.3557 37.5055C35.6248 37.3457 35.8873 37.195 36.1455 37.0666C36.3267 36.9681 36.5072 36.8852 36.6787 36.8065L36.6794 36.8061C36.7469 36.7751 36.813 36.7447 36.8772 36.7143C37.0196 36.6472 37.1579 36.5906 37.2874 36.5375L37.2875 36.5375C37.3648 36.5058 37.4389 36.4755 37.5088 36.4449C37.6473 36.3854 37.7747 36.3382 37.8873 36.2965C37.928 36.2814 37.9668 36.267 38.0035 36.2531C38.2799 36.1508 38.4369 36.092 38.4369 36.092C38.4369 36.092 38.2769 36.1441 37.9968 36.2343C37.9629 36.2455 37.927 36.257 37.8894 36.2691C37.7726 36.3066 37.6391 36.3496 37.4937 36.405C37.4247 36.4314 37.3521 36.4575 37.2765 36.4847L37.2764 36.4847L37.2764 36.4847C37.142 36.5331 36.9982 36.5848 36.8493 36.6471C36.7832 36.6751 36.7151 36.7029 36.6457 36.7313C36.47 36.8031 36.2852 36.8787 36.0989 36.9698C35.834 37.0872 35.5618 37.2282 35.2817 37.3772C35.0065 37.5333 34.7204 37.6968 34.4458 37.8868C34.3142 37.9698 34.1889 38.0643 34.0625 38.1595L34.0348 38.1804C33.9153 38.2656 33.8026 38.3618 33.6896 38.4582L33.6384 38.5019C33.3783 38.7228 33.1401 38.9698 32.917 39.2252C32.7036 39.4879 32.5018 39.7567 32.346 40.0436C32.1884 40.3281 32.0556 40.6163 31.9683 40.905C31.8792 41.1913 31.8162 41.4728 31.7913 41.7355C31.7338 42.2622 31.7883 42.7071 31.852 43.0122C31.8841 43.1653 31.9198 43.2846 31.9459 43.3663C31.9534 43.3885 31.9605 43.4085 31.9669 43.4258C31.9346 43.4263 31.9025 43.4268 31.8706 43.4272C31.8532 43.3833 31.8338 43.3311 31.8126 43.2713C31.7708 43.1587 31.7283 43.0177 31.6847 42.8542L31.6754 42.8151C31.6388 42.6603 31.5979 42.4874 31.575 42.2955C31.5468 42.155 31.5387 42.0047 31.5303 41.8471V41.8471C31.5263 41.7738 31.5223 41.6991 31.5162 41.623C31.5211 41.5478 31.5231 41.4707 31.5251 41.3923C31.5294 41.2225 31.5339 41.0464 31.5695 40.87C31.5785 40.821 31.5854 40.7709 31.5922 40.7204C31.6033 40.6388 31.6146 40.5561 31.6356 40.4753L31.7441 40.0794C31.7673 39.9707 31.811 39.8682 31.8548 39.7653L31.8549 39.765C31.866 39.7391 31.877 39.7132 31.8878 39.6872C31.9081 39.64 31.9277 39.5924 31.9473 39.5447L31.9473 39.5447C31.9815 39.4616 32.0157 39.3785 32.0538 39.2973L32.2684 38.9311C32.2873 38.8999 32.3054 38.8681 32.3235 38.8363C32.3753 38.7454 32.4272 38.6544 32.4964 38.5764C32.5476 38.5095 32.5991 38.4434 32.6503 38.3776L32.6854 38.3326L32.7522 38.2465C32.7663 38.2284 32.7803 38.2102 32.7943 38.192L32.7943 38.192C32.8638 38.1018 32.9332 38.0117 33.0165 37.9371C33.0911 37.8638 33.1643 37.7904 33.2365 37.718L33.2366 37.7179L33.2368 37.7177L33.2373 37.7172L33.2374 37.7171L33.2374 37.7171C33.3494 37.6048 33.4589 37.495 33.5675 37.3917L33.6196 37.3508C33.7949 37.2127 33.961 37.082 34.1155 36.9614L34.1475 36.9362L34.2003 36.8945L34.2009 36.8941L34.2011 36.8939C34.2556 36.8507 34.3086 36.8088 34.361 36.7701L34.4385 36.7217C34.4943 36.687 34.5476 36.6538 34.598 36.6218L34.7697 36.5146L34.7706 36.514C34.8496 36.4646 34.9213 36.4198 34.9853 36.3802L35.323 36.1696C35.323 36.1696 35.1963 36.2398 34.975 36.3633L34.7707 36.4772L34.5756 36.5861L34.4782 36.6401C34.4301 36.6667 34.3803 36.6942 34.3294 36.7229C34.2777 36.7568 34.226 36.7938 34.1726 36.8319C34.1404 36.855 34.1075 36.8785 34.0736 36.902L33.9122 37.0161L33.9033 37.0224L33.8971 37.0268C33.7699 37.1167 33.6363 37.2111 33.4978 37.3088C33.3704 37.4192 33.2403 37.537 33.1066 37.6582L33.1064 37.6584C33.0421 37.7166 32.977 37.7756 32.911 37.8349C32.8196 37.9086 32.7435 37.9976 32.666 38.0882L32.6659 38.0883L32.6659 38.0884L32.6237 38.1375C32.5393 38.2349 32.4545 38.3338 32.3692 38.4333L32.3675 38.4354L32.3436 38.4632C32.2681 38.5412 32.2095 38.6321 32.1504 38.7236L32.1504 38.7237L32.1503 38.7238C32.1302 38.755 32.11 38.7864 32.089 38.8173L31.8477 39.1872C31.8017 39.2739 31.7594 39.3628 31.7171 39.4517C31.6959 39.4962 31.6748 39.5407 31.6532 39.5849C31.6408 39.6111 31.6282 39.6372 31.6155 39.6632L31.6155 39.6633L31.6154 39.6634L31.6154 39.6635L31.6153 39.6636C31.5636 39.7704 31.5122 39.8766 31.481 39.9898L31.4667 40.0336C31.4261 40.158 31.3858 40.2814 31.3446 40.4033C31.3174 40.4909 31.3007 40.5802 31.2841 40.6691C31.2747 40.719 31.2654 40.7687 31.2543 40.8179C31.206 41.0088 31.1914 41.1991 31.1773 41.3838C31.1713 41.4633 31.1653 41.5417 31.1567 41.6188C31.1585 41.6925 31.1587 41.7653 31.159 41.8371V41.8372V41.8373V41.8374V41.8375C31.1597 42.0141 31.1604 42.1838 31.1828 42.3421C31.1991 42.5594 31.2353 42.7547 31.2677 42.9302L31.2713 42.9493C31.3095 43.1291 31.3489 43.284 31.3877 43.4105C31.3901 43.4186 31.3925 43.4266 31.3949 43.4345C31.2616 43.4366 31.1325 43.4388 31.0081 43.441C31.0074 43.4383 31.0068 43.4356 31.0061 43.4329L31.006 43.4326L30.9856 43.3512L30.9705 43.2925C30.967 43.2744 30.9632 43.2561 30.9593 43.2376L30.9521 43.2033L30.9394 43.1443C30.9142 43.0278 30.8871 42.9021 30.8681 42.767C30.8372 42.5727 30.8069 42.3621 30.7917 42.1363C30.7722 41.9722 30.7692 41.8006 30.7662 41.6238C30.7651 41.5592 30.764 41.4939 30.762 41.428C30.76 41.3473 30.7656 41.2664 30.7712 41.1845C30.7741 41.1411 30.7771 41.0974 30.779 41.0533C30.7821 41.0131 30.7839 40.9725 30.7858 40.9317C30.7898 40.8449 30.7938 40.7573 30.8099 40.6708C30.8183 40.6151 30.8262 40.5591 30.834 40.5029C30.8623 40.3009 30.8908 40.0968 30.9487 39.8984L31.0445 39.5152C31.0654 39.4568 31.0866 39.3985 31.1078 39.3404C31.1314 39.2756 31.1549 39.211 31.1779 39.1466C31.2404 38.9457 31.3343 38.7613 31.4262 38.5811L31.4262 38.581L31.4262 38.5809L31.4263 38.5808L31.4263 38.5807L31.4264 38.5806L31.4264 38.5805L31.4265 38.5804C31.4486 38.5371 31.4705 38.494 31.4919 38.451C31.5634 38.2874 31.6613 38.1441 31.7563 38.0052C31.7941 37.9499 31.8314 37.8952 31.8665 37.8402C31.8899 37.8072 31.9118 37.7734 31.9334 37.74C31.9727 37.6792 32.0113 37.6196 32.0574 37.5672C32.1283 37.4867 32.1962 37.408 32.2611 37.3324C32.3115 37.2783 32.358 37.2234 32.4029 37.1704L32.4029 37.1704L32.4029 37.1704L32.4029 37.1704C32.4796 37.08 32.5515 36.995 32.6303 36.9286C32.7093 36.8572 32.7822 36.7924 32.8476 36.7343L32.9455 36.6471C33.1207 36.491 33.2207 36.4014 33.2207 36.4014C33.2207 36.4014 33.1152 36.4849 32.9321 36.6314L32.8747 36.6771L32.795 36.7409L32.7916 36.7435L32.7913 36.7438L32.7896 36.7452L32.7857 36.7483L32.7815 36.7516C32.7254 36.7965 32.6647 36.8451 32.5999 36.8965C32.5161 36.9605 32.4379 37.0432 32.3544 37.1314L32.3544 37.1314C32.3076 37.1809 32.2592 37.2321 32.2071 37.2827L32.1931 37.2973L32.1928 37.2976C32.1263 37.3662 32.0578 37.437 31.9877 37.5103C31.9361 37.5627 31.8919 37.6231 31.8467 37.685L31.8466 37.6851C31.8243 37.7155 31.8018 37.7463 31.778 37.7767C31.7389 37.8315 31.6972 37.8861 31.6548 37.9416C31.5516 38.0765 31.4444 38.2167 31.3627 38.3784C31.3377 38.4228 31.312 38.4673 31.2861 38.512L31.2861 38.5121L31.286 38.5121C31.1827 38.6907 31.0767 38.8739 31.0021 39.0757C30.9539 39.1873 30.9061 39.2994 30.858 39.4125L30.8576 39.4135L30.8426 39.4486L30.722 39.8391C30.6516 40.0396 30.611 40.2467 30.5707 40.4524L30.5707 40.4524C30.5589 40.5125 30.5472 40.5724 30.5347 40.632C30.513 40.7214 30.504 40.8108 30.4951 40.8999L30.4951 40.8999C30.4908 40.9429 30.4865 40.9858 30.4807 41.0285C30.4763 41.0741 30.4709 41.1196 30.4655 41.1649L30.4654 41.165L30.4654 41.1653C30.4552 41.2503 30.4451 41.3347 30.442 41.4184C30.4402 41.485 30.4377 41.5511 30.4353 41.6168C30.4283 41.8029 30.4215 41.9844 30.4323 42.1581C30.4359 42.3935 30.4553 42.6163 30.4771 42.8203C30.4895 42.9649 30.5109 43.1002 30.5308 43.2255C30.5391 43.2781 30.5471 43.3288 30.5541 43.3778C30.5589 43.4019 30.5635 43.4257 30.568 43.4489C30.5133 43.4499 30.4599 43.451 30.4079 43.452C30.4059 43.4293 30.4041 43.4057 30.4022 43.3812C30.3937 43.2735 30.384 43.1498 30.3608 43.0158C30.3542 42.9729 30.3471 42.9286 30.3397 42.8828L30.3396 42.8824C30.3321 42.8353 30.3242 42.7867 30.3166 42.7368C30.3029 42.6801 30.2895 42.6211 30.2756 42.5603C30.2661 42.5185 30.2564 42.4757 30.2462 42.4323C30.2299 42.3499 30.2043 42.2674 30.1778 42.1825L30.1681 42.151L30.1541 42.1054C30.141 42.0671 30.1293 42.0277 30.1175 41.9879L30.1175 41.9878C30.0954 41.9132 30.0727 41.837 30.0395 41.7628L30.0245 41.7246C29.9376 41.5042 29.8468 41.274 29.7225 41.0503C29.6335 40.8563 29.5158 40.6725 29.3962 40.4857C29.3643 40.4359 29.3322 40.3859 29.3006 40.3354C29.2551 40.2552 29.1967 40.1833 29.138 40.111C29.1068 40.0725 29.0755 40.034 29.046 39.994C29.0156 39.956 28.9858 39.9174 28.956 39.8787L28.9559 39.8786L28.9559 39.8785C28.8988 39.8045 28.8416 39.7302 28.7799 39.6599C28.7076 39.5879 28.6375 39.5136 28.5676 39.4396L28.5673 39.4392L28.5672 39.4391L28.5671 39.439L28.567 39.4389L28.5669 39.4387L28.5667 39.4386L28.5666 39.4385L28.5665 39.4384C28.4412 39.3056 28.3166 39.1735 28.181 39.0564C28.1094 38.9979 28.0397 38.938 27.9707 38.8784C27.9467 38.498 27.9514 38.1791 28.0021 38.0268C28.1052 37.7191 28.0781 37.498 28.0529 37.2924C28.0422 37.2054 28.0318 37.1213 28.0318 37.0346C28.0318 36.994 28.0296 36.9466 28.027 36.8916L28.027 36.8914C28.0107 36.5507 27.9805 35.915 28.3822 34.7604C28.8502 33.4184 29.6085 32.1647 29.6085 32.1647V32.1641C28.324 33.3306 27.7991 35.8385 27.6821 36.5382C27.5996 37.0313 27.6764 37.5532 27.729 37.9105L27.729 37.9105C27.751 38.0602 27.7688 38.181 27.7688 38.2586C27.7688 38.2976 27.7675 38.3545 27.7659 38.4259L27.7659 38.4261L27.7659 38.4264C27.7642 38.5026 27.7621 38.5953 27.7609 38.7C27.6906 38.6421 27.6197 38.5865 27.5469 38.5352C27.4509 38.4691 27.356 38.4041 27.2628 38.3402L27.1904 38.2906C27.1838 38.2224 27.1817 38.1714 27.185 38.1424C27.1953 38.0481 27.1981 38.0216 27.2085 38.0183C27.2103 38.0177 27.2123 38.0178 27.2146 38.0184C27.2175 38.0191 27.2209 38.0205 27.2249 38.0222C27.2505 38.0331 27.3017 38.0549 27.4184 37.9674L27.4445 37.9479L27.4945 37.9109L27.4945 37.9108C27.5723 37.8533 27.5938 37.8374 27.5931 37.8225C27.5928 37.8168 27.5893 37.8113 27.5844 37.8036C27.5786 37.7945 27.5709 37.7824 27.5645 37.7634C27.5354 37.6763 27.4184 37.6466 27.1553 37.8215C26.9175 37.98 26.919 37.66 26.9214 37.1649L26.9219 37.0613L26.9219 37.0056C26.9219 36.7286 26.9746 36.6424 27.0425 36.5313C27.1176 36.4085 27.2112 36.2553 27.2729 35.781C27.2886 35.6593 27.3027 35.5433 27.3162 35.4322L27.3162 35.4322C27.403 34.7184 27.4656 34.2033 27.7688 33.623C28.1191 32.9523 28.0325 32.2816 27.7985 32.2816C27.6448 32.2816 27.4663 32.0928 27.3619 31.9632C27.6171 31.8544 27.8388 31.7109 27.9731 31.5521C28.2376 31.2407 28.8172 31.2636 29.2744 31.2817L29.2745 31.2817C29.3737 31.2857 29.4672 31.2894 29.5504 31.2894C30.0172 31.2894 31.1271 30.5605 31.1271 30.5605C30.6015 31.5521 29.434 31.9019 29.434 31.9019C31.7987 31.698 32.6747 29.6858 32.6747 29.6858ZM29.9633 43.4609C29.9623 43.4363 29.9616 43.4106 29.9609 43.3838L29.9609 43.3837L29.9609 43.3836C29.9583 43.2892 29.9553 43.1821 29.9413 43.0643L29.932 42.9774L29.9283 42.9421L29.9283 42.942C29.9236 42.8972 29.9188 42.8509 29.9134 42.8027L29.8891 42.6632L29.8631 42.5152C29.8523 42.4398 29.8329 42.3644 29.8129 42.287C29.806 42.26 29.7989 42.2328 29.7922 42.2053C29.7814 42.1677 29.7722 42.1292 29.7629 42.0902L29.7629 42.0902L29.7629 42.0901L29.7629 42.0901L29.7628 42.09L29.7628 42.09C29.7459 42.0193 29.7286 41.9472 29.7013 41.8766L29.6883 41.838C29.6171 41.6268 29.5426 41.4056 29.4364 41.1877C29.364 41.0027 29.2633 40.8266 29.1607 40.6473C29.1301 40.5938 29.0993 40.54 29.069 40.4855C29.0297 40.4078 28.9789 40.3376 28.9279 40.2672C28.8987 40.227 28.8695 40.1866 28.8423 40.1447C28.8143 40.1058 28.787 40.0664 28.7596 40.027C28.7082 39.9529 28.6568 39.8789 28.6011 39.8082C28.5335 39.7339 28.4682 39.657 28.4029 39.5802L28.4029 39.5801L28.4028 39.5801C28.289 39.446 28.1753 39.3122 28.0501 39.1926C28.0301 39.1746 28.0103 39.1564 27.9906 39.1382C28.0497 39.8017 28.1766 40.5694 28.2943 40.9711C28.3529 41.1711 28.4208 41.4663 28.4969 41.7969C28.6255 42.355 28.7772 43.0139 28.9458 43.4855C29.091 43.4816 29.171 43.4795 29.171 43.4795L29.1704 43.4789C29.1704 43.4789 29.4652 43.4713 29.9633 43.4609ZM28.3302 43.5025C28.1043 42.9266 27.7688 41.9336 27.7688 41.9336C27.7688 41.9336 27.9967 42.906 28.1037 43.5089C26.4601 43.5556 23.293 43.6515 21.3208 43.7485C21.3088 43.0936 21.459 41.6759 21.7537 40.1545C22.0896 38.4215 22.1837 38.2694 22.6028 37.5918L22.6587 37.5014C23.1261 36.7423 23.1261 36.6842 22.8048 36.2465C22.5519 35.9025 23.204 34.8895 23.4929 34.474C23.5605 34.4193 23.6076 34.3581 23.6226 34.2936C23.6734 34.0742 23.9291 33.7673 24.1922 33.4516C24.384 33.2213 24.5798 32.9864 24.7028 32.7773C24.995 32.2815 25.6666 32.1065 26.2504 32.1647C26.541 32.1936 26.8895 32.1359 27.2057 32.024C27.1749 32.1718 27.191 32.3782 27.4475 32.5146C27.7347 32.6673 27.6707 32.8203 27.576 33.0471L27.576 33.0471L27.576 33.0471L27.576 33.0471L27.576 33.0472L27.576 33.0472L27.5759 33.0472L27.5759 33.0472L27.5759 33.0473L27.5759 33.0473L27.5759 33.0473L27.5759 33.0473L27.5759 33.0474L27.5759 33.0474C27.5261 33.1667 27.4677 33.3063 27.4475 33.4771C27.3893 33.9729 27.185 35.1684 26.7183 36.2767C26.3875 37.0602 26.4659 37.2024 26.5711 37.3934C26.6147 37.4726 26.663 37.5602 26.6886 37.7053C26.7016 37.7795 26.7239 37.8844 26.753 38.0117L26.5933 37.9229L26.5921 37.9222L26.5906 37.9214L26.5856 37.9186C26.4933 37.8672 26.4041 37.8176 26.3182 37.77C26.2365 37.7253 26.1582 37.6819 26.0831 37.6404L26.0824 37.64L26.0527 37.6235C26.0019 37.5989 25.9512 37.577 25.9021 37.5559C25.868 37.5412 25.8348 37.5268 25.8029 37.5122L25.6061 37.4262C25.5288 37.3925 25.4584 37.3619 25.3956 37.3342C25.1707 37.2355 25.0416 37.1792 25.0416 37.1792C25.0416 37.1792 25.1671 37.2428 25.3877 37.3524L25.5207 37.419C25.6 37.4587 25.688 37.5028 25.7835 37.5509C25.8081 37.5634 25.8333 37.5757 25.8589 37.5884C25.9131 37.615 25.9694 37.6428 26.0266 37.6744C26.0681 37.6998 26.1106 37.7262 26.1542 37.7534L26.1556 37.7543L26.1565 37.7549C26.1975 37.7804 26.2394 37.8066 26.2824 37.833C26.4119 37.9135 26.5488 37.9994 26.6921 38.0894L26.6928 38.0898L26.6928 38.0898L26.7847 38.1475C26.9642 38.9034 27.3196 40.2189 27.5063 40.8252C27.5944 41.1115 27.7535 41.5351 27.9205 41.9798L27.9205 41.9799L27.9205 41.98C28.1258 42.5266 28.3429 43.1049 28.455 43.499C28.4148 43.5001 28.3732 43.5013 28.3302 43.5025ZM21.338 43.9946C21.3402 44.0086 21.3426 44.0216 21.3451 44.0335C21.3691 44.1456 21.3909 44.2422 21.416 44.3235C22.7301 44.2308 23.7808 44.154 24.1869 44.1012C25.1172 43.9801 24.6607 43.9848 23.6359 43.9954C23.0171 44.0018 22.191 44.0103 21.338 43.9946ZM27.2113 38.4636C27.303 39.1256 27.5979 40.5297 27.7397 40.8833C27.9155 41.3204 28.0609 41.2332 27.8858 40.4166C27.7827 39.9351 27.7606 39.3618 27.7597 38.9188C27.6604 38.8245 27.5607 38.7328 27.4554 38.6508L27.2113 38.4636ZM34.5731 25.2239C34.5731 25.2239 34.7779 26.6525 34.0481 27.032C34.0481 27.032 35.2156 27.2942 34.5731 25.2239ZM31.3028 22.454C31.4192 22.5412 31.6538 22.5999 31.6538 22.5999C31.8574 22.4243 31.4192 22.3372 31.4192 22.3372C31.4192 22.3372 31.2731 21.9873 31.0985 21.7833C31.0457 21.7218 31.0168 21.6788 30.9967 21.6488C30.9784 21.6216 30.9673 21.605 30.9519 21.5949C30.9281 21.5793 30.894 21.5793 30.8069 21.5793C30.6834 21.5793 30.6343 21.5051 30.57 21.4078C30.5277 21.3438 30.4788 21.2698 30.3978 21.2004C30.1935 21.0254 30.0474 21.2004 30.339 21.4625C30.4375 21.5511 30.4995 21.6198 30.5495 21.6752C30.648 21.7843 30.7004 21.8424 30.8936 21.9001C31.08 21.9561 31.1475 22.1305 31.2023 22.2722C31.2334 22.3526 31.2604 22.4224 31.3028 22.454ZM31.2155 22.891C31.2155 23.0109 30.6312 22.8614 30.6312 22.8614C30.6312 22.8614 30.4269 22.4824 30.105 22.3366C29.8814 22.2353 29.7851 22.176 29.6779 22.1101L29.6778 22.11C29.6313 22.0814 29.5827 22.0515 29.5207 22.0163C29.3914 21.9422 29.4499 21.9268 29.5396 21.9032C29.5913 21.8896 29.6533 21.8732 29.6958 21.8414C29.7292 21.8164 29.7626 21.7772 29.7959 21.738C29.8796 21.6397 29.9632 21.5414 30.0468 21.6665C30.0908 21.7326 30.1308 21.7654 30.1666 21.7949C30.2254 21.8432 30.2731 21.8824 30.3093 22.0454C30.3681 22.3081 30.8064 22.687 30.9228 22.6289C31.0397 22.5708 31.2149 22.6876 31.2149 22.8916L31.2155 22.891ZM29.6382 22.8324C29.8134 22.9788 30.3099 23.1241 30.3099 23.1241C30.4677 22.8093 30.3101 22.8092 30.1209 22.8091C29.9947 22.8091 29.8544 22.809 29.7843 22.7155C29.6085 22.4831 29.4339 22.4244 29.3466 22.6871C29.2907 22.8543 29.1993 22.8557 29.0951 22.8573C29.0357 22.8582 28.972 22.8592 28.9084 22.8911C28.8166 22.9366 28.6775 22.8551 28.5903 22.8041C28.5105 22.7573 28.4742 22.7361 28.558 22.8614C28.7332 23.1241 29.0545 23.1532 29.2884 23.0364C29.3897 22.9855 29.436 22.9127 29.4704 22.8587C29.515 22.7885 29.5396 22.7499 29.6382 22.8324ZM29.4921 21.3457C29.4921 21.3457 28.6453 21.2585 28.7035 21.5212C28.7617 21.7833 28.4113 21.842 28.3234 21.5212C28.2361 21.2004 28.2943 21.1417 28.4404 21.1707C28.5175 21.1864 28.6111 21.1693 28.695 21.154H28.6951C28.7701 21.1403 28.8375 21.128 28.8787 21.1417C28.9003 21.1489 28.9493 21.1417 29.0107 21.1326C29.1954 21.1052 29.4921 21.0613 29.4921 21.3457ZM28.9375 22.2493C29.4043 22.4243 28.9957 21.9576 28.9957 21.9576V21.957C28.5574 21.9866 27.7985 21.6367 27.7985 21.6367C27.7985 21.6367 27.5942 21.345 27.536 21.2287C27.4772 21.1119 27.2141 21.2287 27.0978 21.345C27.049 21.3937 26.8685 21.3917 26.6892 21.3897C26.4383 21.3869 26.19 21.3842 26.3091 21.5205C26.4359 21.6655 26.6535 21.6188 26.849 21.5768C26.9676 21.5514 27.0782 21.5276 27.1553 21.5496C27.272 21.5831 27.227 21.6924 27.1887 21.7854C27.1599 21.8553 27.1349 21.916 27.1851 21.9285C27.302 21.9576 27.7397 22.0453 28.0319 21.9872C28.2369 21.946 28.37 22.0056 28.5927 22.1052C28.6873 22.1476 28.7981 22.1972 28.9375 22.2493ZM26.7765 22.862C26.7765 22.862 26.7189 22.3081 26.7189 22.1041C26.7189 22.0086 26.6099 22.009 26.485 22.0095C26.3431 22.0101 26.1807 22.0107 26.1339 21.871C26.0888 21.7352 26.0122 21.7631 25.8844 21.8097C25.7648 21.8533 25.6005 21.9131 25.375 21.871C24.907 21.7833 25.5793 22.2209 25.7835 22.1919C25.9061 22.1744 25.9132 22.1882 25.9499 22.2587C25.9743 22.3057 26.0118 22.3779 26.1054 22.483C26.1424 22.5246 26.1765 22.5654 26.2089 22.6042C26.3812 22.8107 26.506 22.9603 26.7765 22.862ZM28.8203 24.1534C28.8631 24.2227 28.889 24.2647 28.8495 24.2621C28.6032 24.2458 28.5415 24.1556 28.4931 24.0849C28.4554 24.0299 28.4258 23.9867 28.3234 23.9994C28.2046 24.0141 28.1086 23.8862 28.0086 23.7528C27.9116 23.6234 27.8107 23.4889 27.6814 23.4746C27.4184 23.4455 27.3893 23.0369 27.3893 23.0369C27.5476 23.2735 27.6885 23.2543 27.8122 23.2374C27.9172 23.223 28.0098 23.2104 28.09 23.3577C28.179 23.5207 28.3284 23.5559 28.4539 23.5855C28.5753 23.6141 28.6744 23.6374 28.6744 23.7663C28.6744 23.9168 28.7627 24.0599 28.8203 24.1534ZM29.875 24.7704C29.6475 24.6584 29.499 24.5484 29.6079 24.5242C29.6458 24.5157 29.6837 24.5007 29.7208 24.4811C29.9055 24.3316 30.1051 23.8535 30.1051 23.8535C30.1051 24.3493 30.6603 24.9032 30.6603 24.9032L30.6425 24.9043C30.7368 24.979 30.8063 25.0199 30.8063 25.0199H30.8057C30.6825 25.0815 30.2839 24.9567 29.9726 24.8163C29.937 24.8019 29.9045 24.7864 29.875 24.7704ZM29.2878 24.7282C29.3751 25.1071 29.463 25.457 29.463 25.457C28.8198 25.5738 27.7687 24.6991 28.3233 24.845C28.6076 24.9197 28.8305 24.788 28.9922 24.6925C29.1464 24.6014 29.2449 24.5432 29.2878 24.7282ZM27.5361 24.8451C27.5361 24.8451 27.156 24.3784 27.1851 24.0866C27.1979 23.955 27.0743 24.0015 26.9187 24.0601C26.7553 24.1216 26.5566 24.1964 26.4434 24.0924C26.4128 24.0525 26.3964 24.0285 26.3964 24.0285C26.4096 24.0548 26.4254 24.0758 26.4434 24.0924C26.5815 24.2721 27.0096 24.7737 27.5361 24.8451ZM26.28 23.299C26.0757 23.5617 26.163 23.8535 26.163 23.8535L26.1636 23.8541C25.521 23.8826 25.2288 23.1537 25.2288 23.1537C25.5204 23.2706 25.6665 22.9788 25.6665 22.9788C25.7835 23.1828 26.28 23.299 26.28 23.299ZM25.053 22.7457L25.0522 22.7451L25.053 22.7451V22.7457ZM25.0522 22.7451C25.0285 22.7275 24.4958 22.3306 24.382 22.0454C24.3206 21.8923 24.0345 21.932 23.7256 21.9747C23.4563 22.012 23.1697 22.0517 22.9997 21.9682L22.9799 21.9576C22.9863 21.9613 22.9929 21.9648 22.9997 21.9682C23.1042 22.0234 23.5992 22.2752 23.8849 22.2494C24.0138 22.2377 24.1003 22.3152 24.2087 22.4121C24.3703 22.5568 24.5805 22.7449 25.0522 22.7451ZM25.9587 24.612C25.9587 24.612 24.8197 24.2621 24.7609 23.6495C24.7609 23.6495 23.8268 24.2325 25.9587 24.612ZM24.4694 23.3868C24.4694 23.3868 24.1772 23.7948 23.6808 23.4449C23.6808 23.4449 24.2063 23.6785 24.4694 23.3868ZM22.5418 23.5036C23.3013 23.7663 23.5644 23.2705 23.5644 23.2705C23.5057 23.2819 23.4144 23.2467 23.3185 23.2098C23.1747 23.1545 23.0208 23.0952 22.951 23.1827C22.834 23.3286 22.5418 23.5036 22.5418 23.5036ZM23.0673 22.687C23.0673 22.687 22.4254 22.9788 22.1623 22.7451C22.0315 22.6289 21.8432 22.7003 21.633 22.7799C21.4209 22.8602 21.1865 22.9489 20.9666 22.8619L20.9656 22.8626C20.1188 23.5043 17.8117 25.5455 17.374 26.1871C17.1563 26.5055 17.2053 26.5579 17.256 26.6122C17.3074 26.6673 17.3606 26.7242 17.14 27.0618C16.9134 27.4092 16.2087 27.9521 15.4238 28.5569L15.4129 28.5653L15.9421 28.8414L16.8187 28.7833V28.7821L17.5776 28.3439C17.5776 28.3439 16.5853 29.3354 16.1173 29.7446C15.9464 29.8938 15.791 29.9923 15.6569 30.0773L15.6569 30.0773L15.6569 30.0774L15.6568 30.0774C15.4249 30.2244 15.257 30.3309 15.1832 30.589C15.0662 30.997 14.3655 31.5806 14.0145 31.7561C13.9032 31.8118 13.8742 31.9612 13.8372 32.1523C13.7576 32.5636 13.6405 33.1682 12.5839 33.4473L12.5839 33.4474C12.5839 33.4474 12.1753 33.6223 12.0286 34.0006C11.8832 34.3802 10.9193 35.5176 9.69364 36.1592C9.69364 36.1592 10.2768 36.4516 10.5393 36.4226C10.5393 36.4226 9.42996 36.8009 8.69951 36.5097C8.69951 36.5097 11.2109 34.9643 11.708 33.7978C11.708 33.7978 10.8902 33.856 10.686 33.652C10.6038 33.57 10.5689 33.4266 10.5566 33.2845C10.2428 33.6613 9.98862 34.0003 9.83982 34.2646C9.53486 34.8059 9.05276 35.19 8.66753 35.497L8.66752 35.497L8.6675 35.497L8.66749 35.497C8.38884 35.719 8.16088 35.9006 8.08735 36.0721C7.9509 36.3899 7.40699 36.9027 7.00757 37.2793L7.00754 37.2793L7.00743 37.2794L7.00734 37.2795C6.89404 37.3863 6.79238 37.4821 6.71496 37.5594C6.36459 37.9093 6.39369 38.3173 6.89015 38.4638C7.38661 38.6097 8.35043 38.3179 8.7299 38.0558C8.84568 37.9757 9.05932 37.8005 9.3252 37.5826C9.93072 37.0863 10.8072 36.3678 11.4159 36.0431C11.8662 35.8035 12.3012 35.4635 12.7326 35.1263L12.7326 35.1263C13.1403 34.8076 13.5449 34.4914 13.9564 34.2646C14.2556 34.0997 14.573 33.9021 14.8894 33.7052L14.8894 33.7052C15.4684 33.3447 16.0437 32.9865 16.4969 32.8354L15.3288 33.7392C15.3288 33.7392 18.3948 32.7477 18.687 32.2816C18.687 32.2816 18.453 32.7186 18.0736 32.8942C18.0736 32.8942 19.3878 33.3609 20.1764 32.9813H20.177C20.177 32.9813 19.9139 33.3603 18.8337 33.2144C18.0706 33.1117 17.4094 33.3432 16.8192 33.5499C16.574 33.6358 16.341 33.7173 16.118 33.7689C15.4597 33.9206 14.8009 34.3794 14.4661 34.6125C14.4149 34.6481 14.3713 34.6785 14.3365 34.7017C14.0734 34.8766 10.5109 37.3258 10.2775 37.5013C10.0435 37.6763 7.03624 39.7174 6.39308 39.7756C5.75053 39.8343 4.81641 39.6297 4.81641 39.2217C4.81641 38.8137 6.51007 36.9468 6.80225 36.626C6.87718 36.5439 6.97325 36.4502 7.07812 36.3479C7.38217 36.0513 7.76027 35.6824 7.91217 35.3143C8.01843 35.0564 8.42503 34.7195 8.82778 34.3859C9.19927 34.0781 9.5675 33.7731 9.69373 33.5352L9.73566 33.4558C10.0161 32.9234 10.5956 31.8233 11.6499 30.882C12.7231 29.9233 14.2871 28.3646 14.6009 28.0519L14.6009 28.0519L14.6286 28.0243L14.662 27.9908C15.1863 27.4626 20.6485 21.9612 23.7686 21.0551C23.7686 21.0551 27.6524 19.9758 28.2362 19.7718L28.2475 19.7678C28.8337 19.5633 29.8431 19.211 30.0177 18.1386C30.1935 17.0593 29.9892 15.8057 29.9892 15.8057C29.9892 15.8057 30.8652 17.701 30.339 18.6344C29.8134 19.5672 29.3467 20.0049 27.1559 20.4129C25.642 20.6953 23.6676 21.4512 22.3132 22.103C22.3217 22.1208 22.3298 22.1403 22.3375 22.1616C22.3628 22.2323 22.3793 22.2908 22.3932 22.3397C22.4592 22.5731 22.464 22.5898 23.0673 22.6864V22.687ZM10.6046 33.2271C10.6355 33.3798 10.6936 33.52 10.803 33.5067C10.8933 33.495 11.045 33.5229 11.2088 33.5531C11.4682 33.6008 11.758 33.6542 11.8832 33.5648C11.9268 33.5335 12.0213 33.5064 12.1448 33.471L12.1449 33.4709L12.145 33.4709C12.2582 33.4384 12.3958 33.3989 12.5409 33.3428L12.5409 33.3427C12.9779 33.175 13.4841 32.8584 13.6053 32.1357C13.6053 32.1357 12.7294 32.3106 12.379 32.0775C12.2079 31.9633 12.1065 31.787 12.0475 31.6364C11.5367 32.1727 11.0218 32.7304 10.6046 33.2271ZM12.1297 31.5502C12.2848 31.7355 12.5152 31.9789 12.6427 31.9607C12.6874 31.9543 12.7575 31.9522 12.8408 31.9496C13.1374 31.9403 13.6025 31.9259 13.6938 31.6986C13.7379 31.5879 13.8782 31.536 14.0484 31.473C14.3277 31.3696 14.6872 31.2366 14.8322 30.7652C14.8322 30.7652 13.8981 30.5031 13.8102 30.241C13.8102 30.241 14.0061 29.8215 14.1754 29.544C13.8684 29.7998 13.5826 30.0543 13.3441 30.2985L13.2021 30.4439C12.8771 30.7766 12.506 31.1564 12.1297 31.5502ZM14.3911 29.3666C14.3696 29.4518 14.2932 29.6102 14.2244 29.7526C14.1603 29.8853 14.103 30.0041 14.103 30.037C14.103 30.1247 14.8904 30.5624 14.8904 30.5624C14.8904 30.5624 15.5336 29.8039 15.9718 29.5709C16.4095 29.3366 16.5562 29.0745 16.5562 29.0745L15.8839 29.0454L15.3804 28.5903C15.0537 28.842 14.7145 29.104 14.3911 29.3666ZM21.8691 22.3245C21.8365 22.5985 21.0302 22.8421 20.9688 22.8603C21.1625 22.7139 21.4755 22.5284 21.8691 22.3245ZM20.5861 23.8535C21.2862 23.9413 21.8354 23.4425 21.7536 23.4745V23.4739C21.6904 23.4991 21.6328 23.4424 21.5735 23.3842C21.4958 23.3079 21.4154 23.2288 21.3159 23.3281C21.1408 23.5036 20.5861 23.8535 20.5861 23.8535ZM21.3741 24.612L21.3696 24.6129C20.6292 24.6658 20.3932 24.4394 20.2788 24.3298C20.2089 24.2628 20.1845 24.2393 20.1181 24.3499C20.0407 24.4788 19.9062 24.5906 19.7803 24.6953C19.6211 24.8276 19.4756 24.9486 19.4756 25.0787C19.4756 25.3117 20.0017 25.02 20.206 24.8741C20.3024 24.8052 20.5354 24.8988 20.7454 24.9831C20.9804 25.0775 21.1866 25.1603 21.1402 24.9909C21.059 24.6926 21.3311 24.6214 21.3696 24.6129L21.3741 24.6126V24.612ZM22.5712 24.5826L22.5715 24.5823V24.5829L22.5712 24.5826ZM21.7246 24.7869C21.5495 24.5249 22.3954 24.4371 22.5712 24.5826C22.5614 24.5966 22.2835 24.9939 22.4836 25.1658C22.6878 25.3414 21.8998 25.0496 21.7246 24.7869ZM26.3387 26.5363C26.3387 26.5363 25.8417 25.9237 25.9587 25.5157C26.0194 25.3034 25.8674 25.3824 25.6663 25.4869C25.4803 25.5836 25.2522 25.702 25.1118 25.6319C24.929 25.5407 24.9062 25.7005 24.8861 25.8403C24.8742 25.9239 24.8632 26.0004 24.8196 26.0115C24.7027 26.0405 25.3161 26.7403 26.3387 26.5363ZM34.6895 24.2912C34.6895 24.2912 34.8065 24.816 34.5143 24.8741C34.2782 24.9217 34.31 24.7965 34.3461 24.6546L34.3461 24.6546L34.3461 24.6545C34.3546 24.6212 34.3633 24.587 34.3688 24.5539C34.3979 24.3784 34.7192 23.9704 34.6895 24.2912ZM34.1058 26.1865C34.4265 26.0406 34.1058 25.7488 34.1058 25.7488C34.1355 25.5739 33.9016 25.8075 33.6973 26.0406C33.4924 26.2742 33.7852 26.3323 34.1058 26.1865ZM33.6681 25.0781C33.6681 25.2651 33.4056 25.1949 33.3765 25.049C33.3468 24.9032 33.6681 24.8154 33.6681 25.0781ZM32.6416 25.9618V25.9618V25.9618C32.6381 25.8751 32.6341 25.7761 32.6454 25.6616C32.6655 25.4601 32.5048 25.6762 32.3554 25.8772L32.3554 25.8772C32.2885 25.9672 32.2238 26.0542 32.1787 26.0993C32.0326 26.2446 32.412 26.4782 32.5581 26.3323C32.6527 26.2379 32.648 26.1207 32.6416 25.9618ZM32.0327 25.3699C31.9909 25.6435 31.5362 25.7198 31.5362 25.4861C31.5362 25.2525 32.0909 24.9904 32.0327 25.3699ZM30.8063 28.0527C30.8063 28.3148 30.6014 28.5194 30.4844 28.1696C30.368 27.8197 30.8063 27.8197 30.8063 28.0527ZM30.0468 27.236C30.0468 27.5109 29.5794 27.0902 29.6667 27.0611C29.754 27.0321 30.0468 26.9739 30.0468 27.236ZM27.9155 28.2864C27.9155 28.2864 27.4185 28.4026 27.5943 28.1986C27.7688 27.9946 28.0022 28.1114 27.9155 28.2864ZM27.0978 28.1695C27.0099 28.2573 26.6886 28.4032 26.5716 28.3735C26.4546 28.3444 26.1631 27.9068 26.1631 27.9068L26.6589 28.1108L27.0972 28.1689L27.0978 28.1695ZM24.5572 27.4691L25.2288 27.2361L24.5572 27.1193V27.4691ZM23.3013 27.9655C23.3013 27.9655 23.4177 28.4612 23.5056 28.6362C23.5935 28.8111 22.6588 28.4903 22.6588 28.4903L23.3013 27.9655ZM22.2798 27.9655L22.1628 27.7609L21.8415 28.2567L22.2798 27.9655ZM22.5416 27.1192L21.9579 26.8862V26.5066L22.1622 26.8565C22.1622 26.8565 22.5998 26.9443 22.5416 27.1186V27.1192ZM21.5494 26.8275L21.8119 26.5072H21.5203L21.0238 26.3323L21.5494 26.8275ZM20.1472 26.3904L20.147 26.391C19.8549 26.2456 19.5047 27.4698 19.5047 27.4698C19.5047 27.4698 18.8912 27.7906 18.5408 27.6447C18.1911 27.4988 17.9571 27.8487 17.9571 27.8487L18.4826 27.8196C18.4826 27.8196 19.9429 28.1108 19.8847 27.7609C19.8267 27.4162 20.1389 26.417 20.147 26.391L20.1472 26.3911V26.3904ZM30.6402 5.00591C30.1728 4.9478 29.7255 5.2777 29.8224 5.60882C29.92 5.93933 30.6402 6.46415 31.2633 5.66693C31.2633 5.66693 31.1075 5.06463 30.6402 5.00591ZM30.5044 6.01681C30.2462 6.01681 30.037 5.80797 30.037 5.5501C30.037 5.29223 30.2462 5.08339 30.5044 5.08339C30.7626 5.08339 30.9718 5.29284 30.9718 5.5501C30.9718 5.80737 30.7626 6.01681 30.5044 6.01681ZM30.582 5.40427C30.582 5.39216 30.5784 5.38127 30.5748 5.37037H30.5754C30.6481 5.39822 30.6996 5.46783 30.6996 5.55016C30.6996 5.6573 30.6129 5.74447 30.5051 5.74447C30.3972 5.74447 30.3099 5.6579 30.3099 5.55016C30.3099 5.49507 30.3329 5.44604 30.3699 5.41093C30.3735 5.46723 30.4178 5.51141 30.476 5.51141C30.5341 5.51141 30.582 5.46359 30.582 5.40427ZM28.441 8.48595C28.441 8.48595 29.4927 13.6767 29.8425 14.96C29.8425 14.96 29.4927 11.4018 28.441 8.48595Z" clip-rule="evenodd" fill-rule="evenodd"></path></svg>