<?xml version="1.0" encoding="UTF-8"?>
<svg id="Layer_1" data-name="Layer 1" xmlns="http://www.w3.org/2000/svg" xmlns:xlink="http://www.w3.org/1999/xlink" viewBox="0 0 410.4 207.22">
  <defs>
    <style>
      .cls-1 {
        fill: #1b2a4a;
      }

      .cls-2 {
        fill: url(#linear-gradient);
      }
    </style>
    <linearGradient id="linear-gradient" x1="331.45" y1="89.17" x2="369.84" y2="89.17" gradientUnits="userSpaceOnUse">
      <stop offset="1" stop-color="#259cab"/>
      <stop offset="1" stop-color="#274795"/>
    </linearGradient>
  </defs>
  <g>
    <path class="cls-1" d="M240.65,134.63v-15.59h5.75c1.11,0,2.03.18,2.75.54s1.27.85,1.62,1.47c.36.62.53,1.31.53,2.08,0,.65-.12,1.19-.36,1.64-.24.44-.56.8-.96,1.07s-.84.46-1.32.59v.16c.52.02,1.03.19,1.53.5.5.31.91.75,1.23,1.31.33.56.49,1.24.49,2.05s-.19,1.5-.56,2.13c-.37.63-.95,1.14-1.72,1.51s-1.77.55-2.98.55h-6ZM243.04,125.79h3.13c.52,0,1-.1,1.42-.3s.76-.49,1-.86c.24-.37.37-.8.37-1.3,0-.64-.22-1.18-.67-1.61-.45-.43-1.13-.64-2.06-.64h-3.19v4.71ZM243.04,132.58h3.37c1.12,0,1.92-.22,2.41-.65.49-.43.73-.97.73-1.61,0-.5-.12-.96-.37-1.36-.25-.4-.6-.73-1.05-.97-.45-.24-.99-.36-1.62-.36h-3.46v4.95Z"/>
    <path class="cls-1" d="M258.54,134.78c-.79,0-1.49-.17-2.09-.5-.6-.33-1.07-.83-1.4-1.49-.33-.66-.5-1.47-.5-2.43v-7.43h2.3v7.15c0,.84.22,1.5.66,1.98.44.47,1.04.71,1.81.71.52,0,.99-.11,1.4-.34.41-.23.73-.56.97-.99s.36-.96.36-1.58v-6.93h2.3v11.7h-2.2v-2.87s.21,0,.21,0c-.34,1.06-.84,1.83-1.5,2.3-.66.47-1.43.71-2.32.71Z"/>
    <path class="cls-1" d="M268.6,121.14c-.4,0-.74-.13-1.02-.4-.28-.27-.42-.59-.42-.96s.14-.71.42-.97c.28-.27.62-.4,1.02-.4s.74.13,1.03.4c.29.27.43.59.43.97s-.14.7-.43.96c-.29.27-.63.4-1.03.4ZM267.44,134.63v-11.7h2.3v11.7h-2.3Z"/>
    <path class="cls-1" d="M275.14,119.04v15.59h-2.3v-15.59h2.3Z"/>
    <path class="cls-1" d="M283.56,122.93v1.87h-6.34v-1.87h6.34ZM278.92,120.15h2.3v11.32c0,.47.1.81.3,1.03.2.22.52.33.98.33.12,0,.28-.01.47-.04s.36-.06.5-.08l.41,1.84c-.24.08-.51.14-.78.18-.28.04-.55.06-.83.06-1.06,0-1.88-.27-2.47-.82-.59-.55-.88-1.32-.88-2.31v-11.51Z"/>
    <path class="cls-1" d="M296.57,122.93v1.87h-6.34v-1.87h6.34ZM291.93,120.15h2.3v11.32c0,.47.1.81.3,1.03.2.22.53.33.98.33.12,0,.28-.01.47-.04s.36-.06.5-.08l.41,1.84c-.24.08-.51.14-.79.18s-.55.06-.83.06c-1.06,0-1.88-.27-2.47-.82-.59-.55-.88-1.32-.88-2.31v-11.51Z"/>
    <path class="cls-1" d="M303.57,134.87c-1.1,0-2.05-.25-2.87-.75-.82-.5-1.46-1.21-1.91-2.11-.45-.91-.68-1.96-.68-3.16s.23-2.28.68-3.19c.45-.91,1.09-1.62,1.91-2.12.82-.5,1.78-.75,2.87-.75s2.06.25,2.88.75c.82.5,1.46,1.21,1.91,2.12s.68,1.97.68,3.19-.23,2.25-.68,3.16-1.09,1.61-1.91,2.11c-.82.5-1.78.75-2.88.75ZM303.57,132.92c.71,0,1.3-.19,1.76-.56.46-.37.81-.87,1.04-1.49.23-.62.34-1.3.34-2.04s-.11-1.43-.34-2.06c-.23-.62-.57-1.12-1.04-1.5-.46-.37-1.05-.56-1.76-.56s-1.29.19-1.75.56c-.46.37-.8.87-1.03,1.49s-.34,1.31-.34,2.06.11,1.42.34,2.04c.23.62.57,1.11,1.03,1.49.46.37,1.04.56,1.75.56Z"/>
    <path class="cls-1" d="M322.72,134.89c-1.17,0-2.18-.18-3.04-.55s-1.53-.9-2.01-1.58c-.49-.69-.75-1.51-.8-2.46h2.4c.05.57.23,1.03.55,1.4.32.37.73.65,1.24.83.51.18,1.06.27,1.65.27.66,0,1.25-.1,1.76-.31.51-.21.92-.5,1.22-.88.3-.38.45-.82.45-1.32,0-.45-.13-.83-.39-1.12-.26-.29-.61-.53-1.06-.72-.44-.19-.95-.36-1.51-.51l-1.82-.5c-1.28-.34-2.27-.85-2.99-1.52s-1.07-1.54-1.07-2.61c0-.9.24-1.69.73-2.36.49-.67,1.14-1.2,1.98-1.57.83-.37,1.77-.56,2.82-.56s2.01.19,2.82.56c.81.37,1.45.88,1.92,1.53.46.65.71,1.39.73,2.22h-2.32c-.08-.71-.41-1.26-.99-1.65-.58-.39-1.32-.59-2.2-.59-.63,0-1.17.1-1.64.29s-.82.47-1.08.81-.38.74-.38,1.18c0,.49.15.89.46,1.2s.67.54,1.11.72c.44.18.85.32,1.25.42l1.52.4c.5.13,1.01.29,1.53.51.53.21,1.01.49,1.46.83.45.34.81.76,1.08,1.26.28.5.41,1.1.41,1.8,0,.88-.23,1.66-.68,2.35-.45.69-1.11,1.23-1.97,1.63-.86.39-1.9.59-3.12.59Z"/>
    <path class="cls-1" d="M336.07,134.87c-1.1,0-2.06-.25-2.88-.75s-1.45-1.21-1.9-2.11c-.45-.91-.68-1.96-.68-3.16s.23-2.28.68-3.19c.45-.91,1.09-1.62,1.9-2.12.82-.5,1.78-.75,2.88-.75.61,0,1.18.08,1.71.24s1.01.38,1.44.68c.43.3.79.66,1.09,1.09.3.43.52.91.66,1.45l-2.19.52c-.08-.3-.2-.57-.36-.82s-.35-.46-.58-.64-.49-.32-.78-.42c-.3-.1-.62-.15-.98-.15-.71,0-1.29.19-1.75.56-.46.37-.81.87-1.04,1.49s-.34,1.31-.34,2.06.11,1.43.34,2.05.57,1.11,1.04,1.48c.46.37,1.05.55,1.75.55.36,0,.69-.05.99-.15s.57-.24.81-.43c.24-.19.44-.41.6-.67.16-.26.28-.55.34-.86l2.18.52c-.14.55-.36,1.04-.66,1.48s-.66.81-1.09,1.11c-.43.31-.91.54-1.45.7s-1.11.24-1.73.24Z"/>
    <path class="cls-1" d="M347.01,134.89c-.74,0-1.41-.14-2.01-.41-.6-.28-1.07-.68-1.42-1.21-.35-.53-.52-1.18-.52-1.95,0-.66.13-1.21.38-1.63.25-.43.6-.76,1.04-1.01.44-.25.92-.44,1.45-.57.53-.12,1.08-.22,1.63-.28.69-.08,1.25-.15,1.68-.21.43-.05.75-.14.96-.26.21-.12.31-.32.31-.59v-.06c0-.44-.08-.81-.25-1.11-.17-.3-.42-.53-.75-.7-.33-.16-.74-.25-1.24-.25s-.95.08-1.31.24c-.37.16-.66.36-.89.6-.23.24-.4.5-.51.76l-2.17-.57c.26-.7.64-1.26,1.14-1.68.5-.43,1.06-.74,1.71-.93.64-.2,1.3-.29,1.99-.29.47,0,.98.06,1.51.17s1.03.31,1.5.61.85.7,1.14,1.24c.29.53.44,1.22.44,2.07v7.76h-2.23v-1.6h-.12c-.15.3-.38.59-.68.88-.3.29-.68.52-1.13.71-.46.18-1,.28-1.64.28ZM347.52,133.04c.63,0,1.17-.12,1.61-.37s.79-.57,1.03-.97c.24-.4.36-.83.36-1.29v-1.5c-.08.08-.24.16-.48.22-.23.07-.5.13-.8.18-.3.05-.59.1-.87.13-.28.04-.51.06-.69.08-.43.06-.83.15-1.19.28s-.65.32-.86.56-.32.57-.32.97c0,.37.1.68.29.93.19.25.45.44.78.57.33.13.71.19,1.14.19Z"/>
    <path class="cls-1" d="M358.21,119.04v15.59h-2.3v-15.59h2.3Z"/>
    <path class="cls-1" d="M366.35,134.87c-1.15,0-2.15-.25-2.98-.74-.84-.49-1.48-1.19-1.93-2.09-.45-.9-.67-1.96-.67-3.17s.22-2.26.67-3.17c.44-.91,1.07-1.63,1.88-2.14.81-.51,1.76-.77,2.85-.77.67,0,1.32.11,1.94.33.62.22,1.18.56,1.67,1.03s.89,1.07,1.18,1.82c.29.74.43,1.65.43,2.71v.82h-9.32v-1.72h8.14l-1.08.57c0-.72-.11-1.35-.33-1.9-.22-.55-.55-.97-.99-1.28s-.98-.46-1.64-.46-1.2.16-1.66.47c-.46.31-.81.73-1.05,1.24-.24.51-.36,1.07-.36,1.68v1.17c0,.8.14,1.48.41,2.04.28.55.66.97,1.16,1.26.5.28,1.07.42,1.73.42.43,0,.82-.06,1.17-.18.35-.12.65-.31.91-.55s.45-.55.58-.92l2.17.51c-.19.6-.5,1.13-.95,1.59-.44.46-.99.82-1.65,1.07-.66.25-1.41.38-2.24.38Z"/>
  </g>
  <g>
    <g>
      <path class="cls-1" d="M55.51,88.47s-.02,0-.03,0c-.27-.01-.47-.24-.46-.51.25-4.85,2.91-8.18,7.68-9.64.26-.08.53.07.61.32.08.26-.07.53-.32.61-4.35,1.33-6.77,4.36-6.99,8.76-.01.26-.23.46-.49.46Z"/>
      <path class="cls-1" d="M63.78,100.73s-.06,0-.1,0c-4.85-.98-8.19-4.84-8.71-10.08-.03-.27.17-.51.43-.53.27-.02.51.17.53.44.48,4.8,3.52,8.33,7.94,9.22.26.05.43.31.38.57-.05.23-.25.39-.48.39Z"/>
      <path class="cls-1" d="M69,100.73c-.23,0-.43-.16-.48-.4-.05-.26.12-.52.39-.57,4.53-.86,7.64-4.35,8.12-9.1.03-.27.27-.46.53-.44.27.03.46.27.43.53-.52,5.19-3.94,9.01-8.91,9.96-.03,0-.06,0-.09,0Z"/>
      <path class="cls-1" d="M77.62,88.42c-.26,0-.47-.2-.49-.46-.21-4.08-2.83-7.43-7-8.96-.25-.09-.38-.37-.29-.62s.37-.38.62-.29c4.55,1.67,7.4,5.34,7.63,9.82.01.27-.19.5-.46.51,0,0-.02,0-.03,0Z"/>
      <path class="cls-1" d="M85.4,89.02c0,9.73-7.35,17.75-16.8,18.8-.7.08-1.4.12-2.12.12-.77,0-1.54-.05-2.29-.14-9.37-1.13-16.63-9.11-16.63-18.78s6.72-17.04,15.57-18.63v4.21c-6.47,1.5-11.32,7.25-11.44,14.15h3.07v.74h-3.07c.22,7.18,5.56,13.07,12.5,14.15.54.08,1.08.14,1.64.16v-3.55h1.3v3.55c.5-.02.99-.07,1.47-.14,6.79-.97,12.08-6.55,12.63-13.47.02-.23.03-.47.04-.7h-3.27v-.74h3.27c0-.1,0-.2,0-.3-.25-6.58-4.79-12.06-10.9-13.71v-4.24c8.59,1.79,15.04,9.4,15.04,18.52Z"/>
      <path class="cls-1" d="M65.5,70.69h1.95v14.81s-.21.73-.97.73-.98-.73-.98-.73v-14.81Z"/>
    </g>
    <path class="cls-1" d="M127.58,71.09l.4,8.48h-1.01c-.2-1.49-.46-2.56-.8-3.2-.55-1.03-1.28-1.79-2.2-2.28-.92-.49-2.12-.73-3.61-.73h-5.09v27.62c0,2.22.24,3.61.72,4.16.68.75,1.72,1.12,3.12,1.12h1.25v.99h-15.33v-.99h1.28c1.53,0,2.61-.46,3.25-1.39.39-.57.59-1.87.59-3.89v-27.62h-4.35c-1.69,0-2.89.12-3.6.37-.92.34-1.72.99-2.37,1.95s-1.05,2.26-1.17,3.89h-1.01l.43-8.48h29.51Z"/>
    <path class="cls-1" d="M140.56,87.86h16.8v-10.34c0-1.85-.12-3.07-.35-3.65-.18-.44-.55-.83-1.12-1.15-.76-.43-1.57-.64-2.43-.64h-1.28v-.99h15.46v.99h-1.28c-.85,0-1.66.21-2.43.61-.57.29-.96.72-1.16,1.29-.21.58-.31,1.76-.31,3.53v23.33c0,1.83.12,3.04.35,3.63.18.44.54.83,1.09,1.15.78.43,1.6.64,2.45.64h1.28v.99h-15.46v-.99h1.28c1.48,0,2.55-.44,3.23-1.31.44-.57.67-1.94.67-4.11v-11.01h-16.8v11.01c0,1.83.12,3.04.35,3.63.18.44.55.83,1.12,1.15.76.43,1.57.64,2.43.64h1.31v.99h-15.49v-.99h1.28c1.49,0,2.58-.44,3.25-1.31.43-.57.64-1.94.64-4.11v-23.33c0-1.85-.12-3.07-.35-3.65-.18-.44-.54-.83-1.09-1.15-.78-.43-1.6-.64-2.45-.64h-1.28v-.99h15.49v.99h-1.31c-.85,0-1.66.21-2.43.61-.55.29-.93.72-1.15,1.29-.21.58-.32,1.76-.32,3.53v10.34Z"/>
    <path class="cls-1" d="M180.18,73.06v14.29h7.94c2.06,0,3.44-.31,4.13-.93.92-.82,1.44-2.26,1.55-4.32h.99v12.58h-.99c-.25-1.76-.5-2.89-.75-3.39-.32-.62-.84-1.11-1.57-1.47s-1.85-.53-3.36-.53h-7.94v11.92c0,1.6.07,2.57.21,2.92.14.35.39.62.75.83s1.03.31,2.03.31h6.13c2.04,0,3.53-.14,4.45-.43.92-.28,1.81-.84,2.67-1.68,1.1-1.1,2.23-2.76,3.39-4.99h1.07l-3.12,9.06h-27.86v-.99h1.28c.85,0,1.66-.2,2.43-.61.57-.28.96-.71,1.16-1.28.2-.57.31-1.73.31-3.49v-23.49c0-2.29-.23-3.71-.69-4.24-.64-.71-1.71-1.07-3.2-1.07h-1.28v-.99h27.86l.4,7.92h-1.04c-.37-1.9-.79-3.21-1.24-3.92-.45-.71-1.12-1.25-2.01-1.63-.71-.27-1.96-.4-3.76-.4h-9.92Z"/>
    <path class="cls-1" d="M248.65,70.26l.83,12.29h-.83c-1.1-3.68-2.68-6.33-4.72-7.95s-4.5-2.43-7.36-2.43c-2.4,0-4.57.61-6.5,1.83s-3.46,3.16-4.57,5.83c-1.11,2.67-1.67,5.98-1.67,9.94,0,3.27.52,6.11,1.57,8.5,1.05,2.4,2.63,4.24,4.73,5.52,2.11,1.28,4.51,1.92,7.21,1.92,2.35,0,4.42-.5,6.21-1.51,1.79-1,3.77-3,5.92-5.99l.83.53c-1.81,3.22-3.93,5.57-6.34,7.07-2.42,1.49-5.29,2.24-8.61,2.24-5.99,0-10.63-2.22-13.92-6.67-2.45-3.31-3.68-7.2-3.68-11.68,0-3.61.81-6.92,2.43-9.94,1.62-3.02,3.84-5.36,6.68-7.02s5.93-2.49,9.29-2.49c2.61,0,5.19.64,7.73,1.92.75.39,1.28.59,1.6.59.48,0,.9-.17,1.25-.51.46-.48.79-1.15.99-2h.93Z"/>
    <path class="cls-1" d="M272.16,70.26c4.69,0,8.76,1.78,12.2,5.35s5.16,8.01,5.16,13.34-1.73,10.05-5.2,13.68-7.66,5.44-12.58,5.44-9.16-1.77-12.54-5.31c-3.39-3.54-5.08-8.11-5.08-13.73s1.96-10.42,5.87-14.05c3.39-3.15,7.46-4.72,12.18-4.72ZM271.65,72.21c-3.23,0-5.83,1.2-7.78,3.6-2.44,2.99-3.65,7.36-3.65,13.12s1.26,10.44,3.79,13.62c1.94,2.42,4.5,3.63,7.68,3.63,3.39,0,6.2-1.32,8.41-3.97s3.32-6.83,3.32-12.53c0-6.19-1.22-10.8-3.65-13.84-1.96-2.42-4.66-3.63-8.11-3.63Z"/>
    <path class="cls-1" d="M292.56,107.24v-.99h1.36c1.53,0,2.61-.49,3.25-1.47.39-.59.59-1.9.59-3.95v-23.36c0-2.26-.25-3.67-.75-4.24-.69-.78-1.72-1.17-3.09-1.17h-1.36v-.99h14.72c5.4,0,9.51.61,12.33,1.84,2.82,1.23,5.08,3.27,6.8,6.13,1.71,2.86,2.57,6.17,2.57,9.92,0,5.03-1.53,9.23-4.59,12.61-3.43,3.77-8.66,5.65-15.68,5.65h-16.16ZM302.87,104.63c2.26.5,4.15.75,5.68.75,4.12,0,7.54-1.45,10.26-4.35,2.72-2.9,4.08-6.83,4.08-11.78s-1.36-8.93-4.08-11.81c-2.72-2.88-6.21-4.32-10.48-4.32-1.6,0-3.42.26-5.46.77v30.74Z"/>
    <path class="cls-2" d="M353.34,87.22l7.76,11.57c2.15,3.2,3.75,5.22,4.79,6.07,1.04.84,2.36,1.31,3.96,1.4v.99h-15.52v-.99c1.03-.02,1.8-.12,2.29-.32.37-.16.68-.4.92-.73.24-.33.36-.66.36-1,0-.41-.08-.82-.24-1.23-.12-.3-.61-1.08-1.47-2.35l-6.13-9.28-7.57,9.7c-.8,1.03-1.28,1.72-1.44,2.07s-.24.71-.24,1.08c0,.57.24,1.04.72,1.41.48.37,1.4.59,2.75.64v.99h-12.82v-.99c.91-.09,1.69-.28,2.35-.56,1.1-.46,2.15-1.08,3.15-1.87,1-.78,2.13-1.98,3.41-3.6l8.53-10.77-7.12-10.42c-1.94-2.83-3.58-4.68-4.93-5.56s-2.91-1.35-4.67-1.4v-.99h16.72v.99c-1.42.05-2.4.29-2.92.69-.52.41-.79.86-.79,1.36,0,.66.43,1.62,1.28,2.88l5.54,8.29,6.43-8.13c.75-.96,1.2-1.62,1.37-1.97.17-.36.25-.72.25-1.09s-.11-.7-.32-.99c-.27-.37-.6-.63-1.01-.79s-1.25-.24-2.53-.25v-.99h12.82v.99c-1.01.05-1.84.21-2.48.48-.96.41-1.84.96-2.64,1.65-.8.69-1.93,1.97-3.39,3.84l-7.17,9.17Z"/>
  </g>
</svg>